<?xml version="1.0" standalone="no"?>
<!DOCTYPE svg PUBLIC "-//W3C//DTD SVG 20010904//EN"
 "http://www.w3.org/TR/2001/REC-SVG-20010904/DTD/svg10.dtd">
<svg version="1.0" xmlns="http://www.w3.org/2000/svg"
 width="274.000000pt" height="274.000000pt" viewBox="0 0 274.000000 274.000000"
 preserveAspectRatio="xMidYMid meet">
<metadata>
Created by potrace 1.14, written by Peter Selinger 2001-2017
</metadata>
<g transform="translate(0.000000,274.000000) scale(0.100000,-0.100000)"
fill="#000000" stroke="none">
<path d="M1175 2730 c-299 -34 -592 -181 -799 -400 -274 -292 -399 -688 -342
-1079 57 -384 295 -765 606 -972 115 -76 193 -114 318 -155 331 -107 691 -81
997 72 376 187 641 546 710 963 25 148 17 377 -19 518 -64 257 -177 451 -379
653 -207 207 -452 339 -714 385 -111 19 -279 26 -378 15z m-529 -972 c-3 -18
-8 -57 -12 -85 l-7 -53 56 0 c61 0 60 -1 71 75 16 102 11 95 80 95 35 0 65 -2
68 -5 3 -3 2 -27 -3 -53 -5 -26 -11 -62 -14 -79 l-6 -33 47 0 46 0 -7 -47
c-13 -93 -13 -93 -60 -93 -24 0 -46 -3 -48 -7 -3 -5 -8 -29 -11 -55 l-7 -48
47 0 46 0 -7 -47 c-13 -94 -13 -93 -61 -93 -50 0 -48 3 -64 -97 l-12 -73 -70
0 -70 0 6 28 c3 15 8 45 12 67 3 22 8 48 11 58 4 15 -3 17 -56 17 -66 0 -61 6
-77 -95 -12 -77 -9 -75 -81 -75 l-66 0 7 53 c4 28 9 67 12 85 l6 32 -46 0
c-25 0 -46 3 -46 7 0 3 5 35 11 70 l11 63 49 0 c40 0 49 3 49 18 0 9 3 34 6
55 l7 37 -48 0 -47 0 6 33 c4 17 9 49 13 70 6 37 6 37 53 37 l47 0 13 78 c7
42 14 80 17 85 2 4 34 7 70 7 l65 0 -6 -32z m894 -48 l0 -80 -160 0 -161 0 3
-62 3 -63 143 -3 142 -3 0 -74 0 -74 -142 -3 -143 -3 -3 -142 -3 -143 -94 0
-95 0 0 365 0 365 255 0 255 0 0 -80z m510 60 c163 -59 176 -248 22 -313 l-33
-14 41 -12 c22 -6 56 -26 75 -42 93 -82 60 -240 -61 -299 -46 -23 -62 -24
-266 -28 l-218 -4 0 359 c0 198 3 363 8 367 12 13 392 0 432 -14z"/>
<path d="M600 1468 c-1 -7 -5 -32 -9 -55 l-8 -43 58 0 c64 0 59 -5 73 78 l6
32 -60 0 c-41 0 -60 -4 -60 -12z"/>
<path d="M1810 1559 l0 -71 64 4 c75 5 106 25 106 70 0 48 -30 68 -105 68
l-65 0 0 -71z"/>
<path d="M1810 1295 l0 -75 73 0 c92 0 117 15 117 70 0 58 -33 80 -121 80
l-69 0 0 -75z"/>
</g>
</svg>
